<svg xmlns="http://www.w3.org/2000/svg" width="752pt" height="752pt" version="1.1" viewBox="0 0 752 752">
 <g fill="#9d6dbc">
  <path d="m292.53 319.91h29.598c8.1719 0 14.801 8.1719 14.801 14.801 0 8.1719-6.625 14.801-14.801 14.801h-29.598c-8.1719 0-14.801-8.1719-14.801-14.801 0-8.1719 6.625-14.801 14.801-14.801z"/>
  <path d="m430.32 319.91h29.598c8.1719 0 14.801 8.1719 14.801 14.801 0 8.1719-6.625 14.801-14.801 14.801h-29.598c-8.1719 0-14.801-8.1719-14.801-14.801 0-8.1719 6.625-14.801 14.801-14.801z"/>
  <path d="m519.85 594.44h-287.26c-12.977 0.039063-25.438-5.0898-34.629-14.254-9.1914-9.1602-14.355-21.605-14.355-34.586v-199.2c0-51.023 20.27-99.961 56.352-136.04 36.078-36.078 85.016-56.348 136.04-56.348 51.027 0 99.961 20.27 136.04 56.348 36.082 36.082 56.352 85.02 56.352 136.04v199.2c0 12.902-5.1055 25.281-14.199 34.43-9.0977 9.1523-21.441 14.332-34.344 14.41zm-143.85-410.83c-43.176 0-84.582 17.152-115.11 47.68-30.531 30.531-47.684 71.938-47.684 115.11v199.2c0 5.0625 2.0117 9.9219 5.5938 13.5 3.5781 3.582 8.4336 5.5938 13.5 5.5938h287.55c5.0391-0.039062 9.8555-2.0703 13.402-5.6445 3.5508-3.5781 5.543-8.4102 5.5391-13.449v-199.2c0-43.176-17.148-84.582-47.68-115.11-30.527-30.527-71.938-47.68-115.11-47.68z"/>
 </g>
</svg>